<?xml version="1.0" encoding="UTF-8"?>
<svg width="20px" height="20px" viewBox="0 0 20 20" version="1.1" xmlns="http://www.w3.org/2000/svg" xmlns:xlink="http://www.w3.org/1999/xlink">
    <title>形状</title>
    <defs>
        <rect id="path-1" x="0" y="0" width="20" height="20"></rect>
    </defs>
    <g id="纺院" stroke="none" stroke-width="1" fill="none" fill-rule="evenodd">
        <g id="图书检索" transform="translate(-345.000000, -280.000000)">
            <g id="形状" transform="translate(345.000000, 280.000000)">
                <mask id="mask-2" fill="white">
                    <use xlink:href="#path-1"></use>
                </mask>
                <g id="蒙版"></g>
                <path d="M15.1505515,7.16715822 L14.6181796,17.3337907 C14.5986002,17.7072586 14.2925282,18 13.9214459,18 L5.07855412,18 C4.70747183,18 4.40139984,17.7072586 4.38182039,17.3337907 L3.84944855,7.16715822 C3.82917829,6.77926766 4.12463338,6.44822471 4.50940493,6.42771778 C4.89597625,6.40891519 5.22266392,6.7051935 5.2429342,7.09299244 L5.740383,16.5934157 L13.2596352,16.5934157 L13.757084,7.09299244 C13.7775179,6.70502858 14.1081324,6.41012471 14.4906133,6.42771778 C14.8753666,6.44824303 15.1708217,6.77926766 15.1505515,7.16715822 Z M17,4.81318701 C17,5.20159071 16.6876197,5.51648834 16.3023209,5.51648834 L2.69767907,5.51648834 C2.31238031,5.51648834 2,5.20159071 2,4.81318701 C2,4.42478331 2.31238031,4.10988567 2.69767907,4.10988567 L6.53488668,4.10988567 L6.53488668,2.52748058 C6.53488668,2.18758611 6.75973216,2 7.09689129,2 L11.9029451,2 C12.2401224,2 12.4651133,2.18758611 12.4651133,2.52748058 L12.4651133,4.10990401 L16.3023209,4.10990401 C16.6876197,4.10990399 17,4.42480164 17,4.81318701 Z M7.75581142,4.10990399 L11.2441886,4.10990399 L11.2441886,3.23078191 L7.75581142,3.23078191 L7.75581142,4.10990399 Z M8.0483396,15.5384728 C8.05321173,15.5384728 8.05804752,15.5384728 8.06299237,15.5384728 C8.40007879,15.5384728 8.66681009,15.2115899 8.65890196,14.8718054 L8.48150528,7.27013266 C8.47357896,6.93031149 8.19715793,6.6527075 7.85681736,6.66018456 C7.51973093,6.66817475 7.25299964,6.94548553 7.26090777,7.28528835 L7.43830445,14.9030331 C7.44613986,15.2378512 7.71781603,15.5384728 8.0483396,15.5384728 Z M10.9249727,15.5384728 C11.2554236,15.5384728 11.5271906,15.2558841 11.5350261,14.921066 L11.7124227,7.32952759 C11.7203491,6.98972475 11.4535996,6.70367242 11.1165132,6.69561278 C10.7741547,6.69069754 10.4997334,6.9545936 10.4918252,7.29432313 L10.3144285,14.8931553 C10.3065022,15.2329765 10.5732517,15.5384728 10.9103381,15.5384728 C10.915283,15.5384728 10.9201369,15.5384728 10.9249727,15.5384728 Z" fill="currentColor" fill-rule="nonzero" mask="url(#mask-2)"></path>
            </g>
        </g>
    </g>
</svg>