<?xml version="1.0" encoding="UTF-8"?>
<svg width="16px" height="16px" viewBox="0 0 16 16" version="1.1" xmlns="http://www.w3.org/2000/svg" xmlns:xlink="http://www.w3.org/1999/xlink">
    <title>形状结合</title>
    <defs>
        <rect id="path-1" x="0" y="0" width="16" height="16"></rect>
    </defs>
    <g id="纺院" stroke="none" stroke-width="1" fill="none" fill-rule="evenodd">
        <g id="图书检索结果" transform="translate(-343, -104)">
            <g id="形状结合" transform="translate(343, 104)">
                <mask id="mask-2" fill="white">
                    <use xlink:href="#path-1"></use>
                </mask>
                <g id="蒙版"></g>
                <path d="M12.1751257,1.00001718 C12.6153667,0.997587827 13.0160057,1.25296111 13.1983085,1.65222659 C13.3857861,2.05430609 13.325412,2.51337325 13.0394292,2.85213315 L9.50595321,7.03439328 L9.50595321,14.0217121 C9.50649588,14.3508015 9.3404028,14.6579634 9.0642687,14.838535 C8.9022118,14.9461783 8.71473421,15 8.52407903,15 C8.3906204,15 8.26033937,14.9746722 8.1364135,14.9208505 L5.60387717,13.8412512 C5.11452889,13.6354624 4.79994784,13.1605654 4.79994784,12.6318467 L4.79994784,7.03439328 L1.26647182,2.85213315 C0.980489045,2.51337325 0.920114917,2.05430611 1.10759251,1.65222659 C1.29507009,1.25014707 1.68909081,1.00001718 2.13395289,1.00001718 Z M11.8764326,2.26642678 L2.4358236,2.26642678 L6.07098237,6.57216015 L6.07098237,12.6318467 C6.07098237,12.6540085 6.08369272,12.6698384 6.10275824,12.6793364 L8.23491866,13.5848068 L8.23491866,6.57216015 L11.8764326,2.26642678 Z M14.3644827,12.2899208 C14.7140172,12.2899208 15,12.574859 15,12.9231169 C15,13.2713747 14.7140172,13.5563129 14.3644827,13.5563129 L12.3054068,13.5563129 C11.9558723,13.5563129 11.6698895,13.2713747 11.6698895,12.9231169 C11.6698895,12.574859 11.9558723,12.2899208 12.3054068,12.2899208 Z M14.3644827,9.55134771 C14.7140172,9.55134771 15,9.83628593 15,10.1845438 C15,10.5328016 14.7140172,10.8177399 14.3644827,10.8177399 L12.3054068,10.8177399 C11.9558723,10.8177399 11.6698895,10.5328016 11.6698895,10.1845438 C11.6698895,9.83628595 11.9558723,9.55134771 12.3054068,9.55134771 Z M14.3644827,6.81594064 C14.7140172,6.81594064 15,7.10087885 15,7.44913671 C15,7.79739457 14.7140172,8.08233281 14.3644827,8.08233281 L12.3054068,8.08233281 C11.9558723,8.08233281 11.6698895,7.79739455 11.6698895,7.44913671 C11.6698895,7.09943218 11.9544203,6.81594064 12.3054068,6.81594064 Z" fill="currentColor" fill-rule="nonzero" mask="url(#mask-2)"></path>
            </g>
        </g>
    </g>
</svg>