<?xml version="1.0" encoding="UTF-8"?>
<svg width="28px" height="28px" viewBox="0 0 28 28" version="1.1" xmlns="http://www.w3.org/2000/svg" xmlns:xlink="http://www.w3.org/1999/xlink">
    <title>图标/圆形</title>
    <g id="纺织学院备份" stroke="none" stroke-width="1" fill="none" fill-rule="evenodd">
        <g id="纺院首页-新生" transform="translate(-49.000000, -921.000000)">
            <g id="图标/圆形" transform="translate(49.000000, 921.000000)">
                <rect id="Rectangle" x="0" y="0" width="28" height="28" rx="14"></rect>
                <g id="编组-8" transform="translate(7.154412, 5.526151)" stroke-width="1.5">
                    <path d="M7.3056182,1.21818157 C7.56257691,1.22150686 7.81851273,1.30387568 8.0350424,1.4647913 L8.0350424,1.4647913 L12.9999658,5.15451058 C13.317309,5.39034647 13.5043667,5.76241633 13.5043667,6.1577962 L13.5043667,6.1577962 L13.5043667,14 C13.5043667,14.345178 13.3644557,14.657678 13.1382502,14.8838835 C12.9120447,15.110089 12.5995447,15.25 12.2543667,15.25 L12.2543667,15.25 L2,15.25 C1.65482203,15.25 1.34232203,15.110089 1.11611652,14.8838835 C0.889911016,14.657678 0.75,14.345178 0.75,14 L0.75,14 L0.75,6.19043232 C0.75,5.78364438 0.947944047,5.40229864 1.28061327,5.16818836 L1.28061327,5.16818836 L6.5700566,1.44583295 C6.79067787,1.29057449 7.04865949,1.21485627 7.3056182,1.21818157 Z" id="路径-32" stroke="currentColor" fill="currentColor"></path>
                    <line x1="7.12718337" y1="8.47384851" x2="7.12718337" y2="12.4178678" id="路径-33" stroke="#FFFFFF" stroke-linecap="round"></line>
                </g>
            </g>
        </g>
    </g>
</svg>