<?xml version="1.0" encoding="UTF-8"?>
<svg width="28px" height="28px" viewBox="0 0 28 28" version="1.1" xmlns="http://www.w3.org/2000/svg" xmlns:xlink="http://www.w3.org/1999/xlink">
    <title>图标/圆形 copy</title>
    <g id="纺织学院备份" stroke="none" stroke-width="1" fill="none" fill-rule="evenodd">
        <g id="纺院首页-新生" transform="translate(-253.000000, -921.000000)">
            <g id="图标/圆形-copy" transform="translate(253.000000, 921.000000)">
                <rect id="Rectangle" x="0" y="0" width="28" height="28" rx="14"></rect>
                <g id="编组-9" transform="translate(7.000000, 7.000000)" stroke="currentColor" stroke-width="1.5">
                    <path d="M7,14 C10.8659932,14 14,10.8659932 14,7 C14,5 14,3 14,1 C14,0.44771525 13.5522847,7.68579428e-16 13,0 C11,0 9,0 7,0 C3.13400675,0 0,3.13400675 0,7 C0,10.8659932 3.13400675,14 7,14 Z" id="椭圆形"></path>
                    <line x1="3.60365852" y1="4.50550786" x2="3.60365852" y2="5.99999986" id="路径-34" stroke-linecap="round"></line>
                    <line x1="7.60365852" y1="4.50550786" x2="7.60365852" y2="5.99999986" id="路径-34备份" stroke-linecap="round"></line>
                </g>
            </g>
        </g>
    </g>
</svg>