<?xml version="1.0" encoding="UTF-8"?>
<svg width="12px" height="12px" viewBox="0 0 12 12" version="1.1" xmlns="http://www.w3.org/2000/svg" xmlns:xlink="http://www.w3.org/1999/xlink">
    <title>形状</title>
    <g id="纺院" stroke="none" stroke-width="1" fill="none" fill-rule="evenodd">
        <g id="学生码" transform="translate(-116.000000, -492.000000)" fill="#999999" fill-rule="nonzero">
            <g id="花瓣素材_146756a3f975e21e7b96db3b02d5658656d5ecf76a4362-Vbk_193463000" transform="translate(32.000000, 156.000000)">
                <g id="编组" transform="translate(84.000000, 334.000000)">
                    <path d="M2.55874059,3.08518371 C2.00089545,3.47541591 1.51688275,3.95588197 1.11959388,4.51251948 C0.3215003,5.62931012 -0.0722727371,6.99570874 0.0109352527,8.35859175 C0.0285144107,8.65273073 0.281654219,8.8765576 0.575812058,8.85897958 C0.869969898,8.84140156 1.09381112,8.58827797 1.07623197,8.29413898 C0.934426791,5.96094889 2.47318871,3.83283578 4.73621175,3.23283913 C6.47068823,2.77346669 8.29540438,3.29026069 9.52828902,4.55353488 L8.69620909,5.00118862 L11.2826886,6.5996172 L11.3752721,3.5609623 L10.4998302,4.03205341 C9.81541519,3.2562765 8.94348918,2.67151414 7.95905657,2.32932855 C6.83047491,1.93909636 5.62220109,1.89456536 4.46314889,2.20159489 C3.77638995,2.3832345 3.13533682,2.6808891 2.55874059,3.08518371 Z M0.623861743,12.4390377 L1.4993036,11.9691185 C2.18371865,12.7448954 3.05564466,13.3296577 4.04007726,13.6706714 C5.16865893,14.0609036 6.37693275,14.1054346 7.53598495,13.7984051 C7.98718323,13.6788745 8.41845846,13.5101255 8.82512287,13.2933298 C9.03724466,13.1808304 9.24233478,13.0542686 9.44039325,12.9159882 C9.99823839,12.525756 10.4810791,12.0464618 10.878368,11.4909961 C11.6764616,10.3753774 12.0714066,9.01015061 11.9893705,7.64843947 C11.9717914,7.35430048 11.7186516,7.13047361 11.4244937,7.14805163 C11.1303359,7.16562965 10.9064947,7.41875325 10.9240738,7.71289223 C11.0623632,10.0413948 9.5224293,12.1671642 7.26292209,12.7671609 C5.52844561,13.2265333 3.70372946,12.7097393 2.47084482,11.4464651 L3.30292475,10.9988114 L0.716445287,9.4003828 L0.623861743,12.4390377 Z" id="形状"></path>
                </g>
            </g>
        </g>
    </g>
</svg>