<?xml version="1.0" encoding="UTF-8"?>
<svg width="30px" height="30px" viewBox="0 0 30 30" version="1.1" xmlns="http://www.w3.org/2000/svg" xmlns:xlink="http://www.w3.org/1999/xlink">
    <!-- Generator: Sketch 61.2 (89653) - https://sketch.com -->
    <title>Icons/Logo/Wechat@2x</title>
    <desc>Created with Sketch.</desc>
    <g id="Icons/Logo/Wechat" stroke="none" stroke-width="1" fill-rule="evenodd">
        <path d="M17.8349585,14.983123 C17.3451095,14.983123 16.8551173,15.4223409 16.8551173,15.9630055 C16.8551173,16.4023157 17.3448708,16.8415797 17.8349585,16.8415797 C18.5700901,16.8415797 19.0950409,16.4022696 19.0950409,15.9630055 C19.0950409,15.422387 18.5701857,14.983123 17.8349585,14.983123 L17.8349585,14.983123 L17.8349585,14.983123 Z M14.6150027,10.4207899 C15.3849973,10.4207899 15.8750851,9.94781785 15.8750851,9.23796788 C15.8750851,8.49450218 15.3850451,8.05523813 14.6150027,8.05523813 C13.8800143,8.05523813 13.1799845,8.49454829 13.1799845,9.23796788 C13.1799367,9.94791007 13.8800621,10.4207899 14.6150027,10.4207899 L14.6150027,10.4207899 Z M10.9400609,20.254891 C9.64492448,20.254891 8.69994627,20.0522744 7.47496567,19.7142264 L3.94000119,21.4378975 L4.95518297,18.5314044 C2.47011999,16.8418564 1,14.7128137 1,12.1106146 C1,7.51461964 5.48003821,4 10.9401086,4 C15.7700663,4 20.0751209,6.77120005 20.9150803,10.691468 C20.5651131,10.6237293 20.250009,10.5900674 19.9700543,10.5900674 C15.2100615,10.5900674 11.5351674,14.0369484 11.5351674,18.1936793 C11.5351674,18.9032526 11.6401863,19.5453638 11.8151698,20.2213214 C11.5351674,20.254891 11.2200633,20.254891 10.9400609,20.254891 L10.9400609,20.254891 Z M25.5350958,23.5666635 L26.2349824,26 L23.5750313,24.5469149 C22.5600884,24.7495315 21.5800561,25.0536871 20.5651131,25.0536871 C15.8750373,25.0536871 12.1650892,21.9447158 12.1650892,18.0922326 C12.1650892,14.2397034 15.8751328,11.1306859 20.5651131,11.1306859 C25.0100018,11.1306859 29,14.2397034 29,18.0922326 C29,20.254891 27.4950648,22.1811326 25.5350958,23.5667096 L25.5350958,23.5667096 L25.5350958,23.5666635 Z M7.68500328,8.05523813 C6.95001492,8.05523813 6.18006805,8.49454829 6.18006805,9.23796788 C6.18006805,9.94786396 6.95001492,10.4210204 7.68500328,10.4210204 C8.38512865,10.4210204 8.94508567,9.94786396 8.94508567,9.23796788 C8.94508567,8.49454829 8.38512865,8.05523813 7.68500328,8.05523813 L7.68500328,8.05523813 Z M23.3301307,14.983123 C22.8050367,14.983123 22.3500507,15.4223409 22.3500507,15.9630055 C22.3500507,16.4023157 22.8050367,16.8415797 23.3301307,16.8415797 C24.0300173,16.8415797 24.5550636,16.4022696 24.5550636,15.9630055 C24.5550636,15.422387 24.0300173,14.983123 23.3301307,14.983123 L23.3301307,14.983123 L23.3301307,14.983123 Z" id="wechat" fill-rule="nonzero"></path>
    </g>
</svg>